<svg xmlns="http://www.w3.org/2000/svg" viewBox="0 0 512 512">
  <defs>
    <linearGradient id="grad" x1="0%" y1="0%" x2="100%" y2="100%">
      <stop offset="0%" style="stop-color:#3b82f6;stop-opacity:1" />
      <stop offset="100%" style="stop-color:#8b5cf6;stop-opacity:1" />
    </linearGradient>
  </defs>
  <rect width="512" height="512" rx="128" fill="url(#grad)"/>
  <g fill="white">
    <!-- C -->
    <path d="M 150 180 Q 120 180 120 210 L 120 300 Q 120 330 150 330 L 180 330 L 180 300 L 150 300 L 150 210 L 180 210 L 180 180 Z"/>
    <!-- E -->
    <path d="M 210 180 L 210 330 L 280 330 L 280 300 L 240 300 L 240 270 L 270 270 L 270 240 L 240 240 L 240 210 L 280 210 L 280 180 Z"/>
    <!-- Network nodes representing context -->
    <circle cx="340" cy="210" r="15" opacity="0.8"/>
    <circle cx="390" cy="210" r="15" opacity="0.8"/>
    <circle cx="340" cy="260" r="15" opacity="0.8"/>
    <circle cx="390" cy="260" r="15" opacity="0.8"/>
    <circle cx="365" cy="235" r="20" opacity="1"/>
    <!-- Connections -->
    <line x1="340" y1="210" x2="365" y2="235" stroke="white" stroke-width="3" opacity="0.6"/>
    <line x1="390" y1="210" x2="365" y2="235" stroke="white" stroke-width="3" opacity="0.6"/>
    <line x1="340" y1="260" x2="365" y2="235" stroke="white" stroke-width="3" opacity="0.6"/>
    <line x1="390" y1="260" x2="365" y2="235" stroke="white" stroke-width="3" opacity="0.6"/>
  </g>
</svg>
